<svg width="199" height="201" viewBox="0 0 199 201" fill="none" xmlns="http://www.w3.org/2000/svg">
<path d="M35.3711 102.216L0.0250854 82.6154L0.0417953 146.214L35.3878 166.738L35.3711 102.216Z" fill="#6096C8"/>
<path d="M1.13209 145.587L1.11121 84.4703L34.2807 102.86L34.2933 164.854L1.13209 145.587Z" fill="#5BB1FF"/>
<path d="M76.056 42.8621L71.7531 40.481L0.0250854 81.8719L4.32793 84.253L76.056 42.8621Z" fill="#EE5550"/>
<path d="M35.3711 102.216L107.099 61.0051L107.087 125.347L35.3878 166.738L35.3711 102.216Z" fill="#59B0FF"/>
<path d="M190.679 110.358L190.829 161.111L194.038 162.974L193.883 110.939L190.679 110.358Z" fill="#75B7F3"/>
<path d="M193.883 110.939L194.038 162.974L197.075 161.22L196.924 110.939H193.883Z" fill="#55A5EE"/>
<path d="M123.575 148.533L123.722 198.659L126.93 200.522L126.779 149.113L123.575 148.533Z" fill="#75B7F3"/>
<path d="M126.779 149.113L126.93 200.522L129.967 198.767L129.817 149.113H126.779Z" fill="#55A5EE"/>
<path d="M126.754 149.247L0 78.9768L0.0167104 82.6112L126.771 152.89L126.754 149.247Z" fill="#91CAFF"/>
<path d="M198.482 107.852L71.7281 37.5859L0 78.9768L126.754 149.243L198.482 107.852Z" fill="#75BCFE"/>
<path d="M61.9777 103.465L88.175 88.3512C88.4761 88.1773 88.8172 88.0844 89.1649 88.0814C89.5127 88.0785 89.8552 88.1657 90.1593 88.3345L139.082 115.455C139.784 115.843 139.792 116.85 139.099 117.251L112.902 132.366C112.601 132.539 112.26 132.632 111.912 132.635C111.564 132.638 111.221 132.551 110.917 132.382L61.9986 105.262C61.8385 105.174 61.7047 105.045 61.6108 104.888C61.5169 104.731 61.4663 104.552 61.4642 104.37C61.4621 104.187 61.5085 104.007 61.5987 103.848C61.6889 103.689 61.8197 103.557 61.9777 103.465Z" fill="#56707B"/>
<path d="M126.754 149.247L198.482 107.852L198.466 111.49L126.771 152.886L126.754 149.247Z" fill="#90CAFF"/>
<path d="M34.2933 121.801L34.285 122.92L1.11542 103.77L1.11959 102.651L34.2933 121.801ZM34.2933 143.762L34.285 144.881L1.11542 125.732L1.12795 124.612L34.2933 143.762Z" fill="#6096C8"/>
<path d="M10.4939 139.563V140.858L8.57646 141.986C8.49291 142.078 8.44696 142.12 8.44696 142.208V140.913C8.44696 140.829 8.48874 140.741 8.57646 140.696L10.4939 139.563Z" fill="#B0B8BC"/>
<path d="M23.6615 147.175V148.482L21.7398 149.606C21.0714 149.982 19.9226 150.003 19.25 149.606L7.16025 142.63C6.81352 142.425 6.63806 142.153 6.63806 141.903L6.66313 140.641C6.66313 140.892 6.83858 141.143 7.16443 141.314L19.25 148.29C19.6362 148.487 20.0635 148.59 20.497 148.59C20.9305 148.59 21.3578 148.487 21.744 148.29L23.6615 147.175Z" fill="#B0B8BC"/>
<path d="M23.6699 147.171L21.744 148.29C21.3586 148.487 20.9326 148.59 20.5001 148.591C20.0676 148.592 19.6409 148.492 19.2542 148.299L7.16028 141.314C6.47517 140.921 6.4877 140.269 7.16864 139.873L9.09447 138.753L10.5148 139.572L8.58482 140.691C8.37594 140.813 8.39683 141.005 8.58482 141.113L19.2793 147.288C19.3927 147.345 19.5179 147.374 19.6448 147.374C19.7717 147.374 19.8969 147.345 20.0103 147.288L21.9362 146.168L23.6699 147.171Z" fill="#DDE4E7"/>
<path d="M10.4939 118.162V119.457L8.57646 120.585C8.49291 120.673 8.44696 120.719 8.44696 120.806V119.511C8.44696 119.428 8.48874 119.34 8.57646 119.294L10.4939 118.162Z" fill="#B0B8BC"/>
<path d="M23.6615 125.769V127.081L21.7398 128.205C21.0714 128.581 19.9226 128.602 19.25 128.205L7.16025 121.224C6.81352 121.024 6.63806 120.752 6.63806 120.501L6.66313 119.24C6.66313 119.49 6.83858 119.741 7.16443 119.912L19.25 126.889C19.6362 127.086 20.0635 127.188 20.497 127.188C20.9305 127.188 21.3578 127.086 21.744 126.889L23.6615 125.769Z" fill="#B0B8BC"/>
<path d="M23.6699 125.765L21.744 126.889C21.3586 127.085 20.9326 127.188 20.5001 127.19C20.0676 127.191 19.6409 127.091 19.2542 126.897L7.16028 119.912C6.47517 119.52 6.4877 118.868 7.16864 118.471L9.09447 117.352L10.5148 118.17L8.58482 119.29C8.37594 119.411 8.39683 119.603 8.58482 119.712L19.2793 125.886C19.3927 125.943 19.5179 125.973 19.6448 125.973C19.7717 125.973 19.8969 125.943 20.0103 125.886L21.9362 124.767L23.6699 125.765Z" fill="#DDE4E7"/>
<path d="M10.4939 96.7605V98.0556L8.57646 99.1835C8.49291 99.2712 8.44696 99.3172 8.44696 99.4049V98.1099C8.44696 98.0263 8.48874 97.9344 8.57646 97.8926L10.4939 96.7605Z" fill="#B0B8BC"/>
<path d="M23.6615 104.368V105.68L21.7398 106.799C21.0714 107.175 19.9226 107.2 19.25 106.799L7.16025 99.8227C6.81352 99.6221 6.63806 99.3464 6.63806 99.1L6.66313 97.8342C6.66313 98.0848 6.83858 98.3355 7.16443 98.5109L19.25 105.487C19.6362 105.684 20.0635 105.787 20.497 105.787C20.9305 105.787 21.3578 105.684 21.744 105.487L23.6615 104.368Z" fill="#B0B8BC"/>
<path d="M23.6699 104.364L21.744 105.483C21.3586 105.68 20.9326 105.783 20.5001 105.784C20.0676 105.785 19.6409 105.685 19.2542 105.492L7.16028 98.5109C6.47517 98.1141 6.4877 97.4666 7.16864 97.0697L9.09448 95.9459L10.5148 96.7647L8.58482 97.8885C8.37594 98.0055 8.39683 98.1976 8.58482 98.3063L19.2793 104.485C19.3927 104.542 19.5179 104.571 19.6448 104.571C19.7717 104.571 19.8969 104.542 20.0103 104.485L21.9362 103.361L23.6699 104.364ZM90.1802 90.9037L129.278 113.671C129.056 113.546 128.751 113.563 128.43 113.751L89.328 90.9831C89.6538 90.7992 89.9588 90.7742 90.1802 90.9037Z" fill="#DDE4E7"/>
<path d="M128.267 113.855L89.165 91.0916C89.2188 91.0538 89.2745 91.0189 89.3321 90.9872L128.43 113.751C128.373 113.782 128.319 113.817 128.267 113.855Z" fill="#DDE4E7"/>
<path d="M127.573 116.604L88.4758 93.8488C88.292 93.736 88.1708 93.5313 88.1416 93.2472C88.121 93.1185 88.121 92.9874 88.1416 92.8587L127.239 115.614C127.219 115.745 127.219 115.879 127.239 116.011C127.268 116.295 127.394 116.499 127.573 116.604Z" fill="#9AA1A5"/>
<path d="M110.278 126.997L71.1766 104.234L89.1692 91.0916L128.267 113.859L110.278 126.997Z" fill="#DDE4E7"/>
<path d="M110.023 128L70.926 105.237C70.8633 105.199 70.8174 105.128 70.8007 105.024C70.7714 104.765 70.9385 104.414 71.1767 104.234L110.278 127.002C110.036 127.177 109.869 127.528 109.902 127.787C109.915 127.891 109.961 127.962 110.023 128Z" fill="#CFD8DD"/>
<path d="M128.43 113.751C129.014 113.412 129.537 113.621 129.616 114.269C129.712 114.979 129.24 115.944 128.593 116.424C128.543 116.46 128.491 116.494 128.438 116.524C127.845 116.871 127.314 116.662 127.235 116.011C127.215 115.88 127.218 115.747 127.243 115.618L110.391 127.942C110.375 127.952 110.358 127.962 110.341 127.971C110.124 128.096 109.932 128.025 109.902 127.787C109.869 127.528 110.036 127.177 110.278 127.002L128.267 113.855C128.319 113.817 128.373 113.782 128.43 113.751Z" fill="#B0B8BC"/>
<path d="M98.4893 97.9177C98.6397 98.0013 98.6397 98.1684 98.4726 98.2937L97.2862 99.1751C97.1358 99.2879 96.8684 99.3172 96.718 99.2336L95.1473 98.3271C94.9969 98.2436 95.0219 98.0681 95.1723 97.9553L96.3588 97.0738C96.5259 96.9485 96.7682 96.9235 96.9227 97.007L98.4893 97.9177ZM96.0872 96.5266C96.2418 96.6143 96.2293 96.7772 96.0622 96.9026L94.8757 97.7798C94.7212 97.8968 94.4663 97.9344 94.3159 97.8467L92.7494 96.9443C92.599 96.8566 92.6241 96.6853 92.7744 96.5684L93.9609 95.6911C94.128 95.5658 94.3703 95.5365 94.5207 95.6242L96.0872 96.5266ZM89.9379 99.6263C90.0758 99.7057 90.0799 99.877 89.9128 99.9981L88.3003 101.193C88.1332 101.318 87.8826 101.339 87.7405 101.26L86.1698 100.353C86.0236 100.27 86.0194 100.098 86.1865 99.9772L87.799 98.7783C87.9661 98.653 88.2209 98.6321 88.3672 98.7156L89.9379 99.6263ZM87.469 98.1976C87.6194 98.2853 87.611 98.4483 87.4439 98.5736L85.8314 99.7683C85.6643 99.8937 85.422 99.9187 85.2716 99.831L82.481 98.2227C82.3306 98.1349 82.3432 97.972 82.5061 97.8467L84.1186 96.6519C84.2857 96.5266 84.528 96.5015 84.6784 96.5893L87.469 98.1976ZM91.2831 93.7527C91.4293 93.8363 91.4167 94.0034 91.2538 94.1245L90.0674 95.006C89.9128 95.1188 89.658 95.1564 89.5076 95.0728L87.9369 94.1663C87.7865 94.0786 87.8115 93.9073 87.9661 93.7903L89.1525 92.913C89.3196 92.7877 89.5619 92.7585 89.7123 92.8462L91.2831 93.7527ZM88.881 95.5407C89.0272 95.6242 89.0063 95.7913 88.8434 95.9167L87.235 97.1073C87.0679 97.2326 86.8089 97.2744 86.6627 97.1908L85.092 96.2801C84.9416 96.1966 84.9667 96.0253 85.1338 95.8958L86.7421 94.701C86.9092 94.5757 87.1599 94.5464 87.3061 94.6342L88.881 95.5407ZM91.2789 96.9276C91.4251 97.0112 91.4209 97.1825 91.2538 97.3036L89.6497 98.5026C89.4784 98.6279 89.2068 98.6571 89.0606 98.5736L87.4899 97.6671C87.352 97.5835 87.3645 97.4122 87.54 97.2827L89.1442 96.0879C89.3113 95.9626 89.5703 95.9376 89.7081 96.0169L91.2789 96.9276ZM93.6851 98.3146C93.8355 98.4023 93.8188 98.5652 93.6517 98.6905L92.0476 99.8853C91.8763 100.011 91.6214 100.052 91.4669 99.9647L89.9003 99.0582C89.7499 98.9746 89.775 98.7992 89.9421 98.6738L91.5546 97.4791C91.7217 97.3537 91.9682 97.3245 92.1186 97.4122L93.6851 98.3146ZM90.293 103.294C90.4392 103.378 90.4225 103.545 90.2596 103.67L88.6512 104.861C88.48 104.986 88.2335 105.015 88.0914 104.932L86.5207 104.025C86.3745 103.942 86.3703 103.77 86.5416 103.645L88.1499 102.45C88.317 102.325 88.576 102.3 88.7222 102.388L90.293 103.294ZM120.129 110.409C120.279 110.492 120.275 110.659 120.108 110.784L118.922 111.666C118.767 111.779 118.504 111.812 118.353 111.724L116.787 110.822C116.636 110.734 116.662 110.563 116.812 110.446L117.998 109.569C118.165 109.443 118.408 109.414 118.562 109.502L120.129 110.409ZM117.723 112.192C117.873 112.28 117.869 112.451 117.702 112.577L116.093 113.771C115.922 113.897 115.659 113.93 115.509 113.842L113.938 112.936C113.787 112.852 113.812 112.677 113.984 112.552L115.592 111.357C115.759 111.231 116.006 111.202 116.156 111.29L117.723 112.192ZM110.512 108.031C110.667 108.119 110.65 108.282 110.483 108.407L108.875 109.602C108.708 109.728 108.449 109.769 108.298 109.682L106.732 108.775C106.581 108.692 106.606 108.516 106.773 108.391L108.382 107.196C108.549 107.071 108.799 107.041 108.946 107.129L110.512 108.031ZM100.703 116.228C100.85 116.311 100.837 116.491 100.67 116.612L99.0574 117.811C98.8903 117.936 98.6397 117.957 98.4893 117.87L96.9227 116.971C96.7723 116.884 96.7807 116.721 96.9478 116.595L98.5603 115.401C98.7274 115.275 98.9822 115.238 99.1326 115.325L100.703 116.228ZM96.0872 99.7015C96.2334 99.7851 96.2334 99.9605 96.0663 100.086L94.458 101.281C94.2909 101.406 94.0193 101.435 93.8731 101.352L92.2982 100.445C92.1478 100.357 92.1729 100.186 92.3442 100.057L93.9525 98.8618C94.1196 98.7365 94.3661 98.7073 94.5165 98.795L96.0872 99.7015ZM92.3483 101.013C92.4904 101.097 92.4862 101.264 92.3191 101.389L90.7107 102.584C90.5436 102.709 90.293 102.73 90.151 102.651L88.5802 101.744C88.4298 101.661 88.434 101.494 88.6011 101.368L90.2094 100.169C90.3765 100.044 90.6272 100.023 90.7818 100.111L92.3483 101.013ZM98.4935 101.097C98.6439 101.18 98.6313 101.347 98.4642 101.469L96.8559 102.663C96.6888 102.789 96.4298 102.83 96.2794 102.739L94.7128 101.836C94.5624 101.753 94.575 101.573 94.7462 101.444L96.3546 100.249C96.5217 100.123 96.7765 100.103 96.9269 100.19L98.4935 101.097ZM94.7588 102.409C94.9008 102.492 94.8966 102.659 94.7337 102.78L93.1212 103.975C92.9541 104.1 92.7034 104.121 92.5614 104.042L90.9948 103.135C90.8444 103.052 90.8444 102.885 91.0115 102.759L92.6241 101.561C92.7912 101.435 93.0418 101.414 93.1922 101.502L94.7588 102.409ZM105.708 102.083C105.846 102.166 105.85 102.333 105.683 102.459L104.497 103.336C104.342 103.453 104.075 103.482 103.937 103.403L102.37 102.496C102.22 102.413 102.228 102.229 102.383 102.12L103.569 101.235C103.736 101.109 103.991 101.093 104.141 101.18L105.708 102.083ZM100.891 102.475C101.046 102.563 101.042 102.739 100.875 102.86L99.2663 104.054C99.0992 104.18 98.8277 104.213 98.6773 104.126L97.1107 103.219C96.9603 103.135 96.9854 102.964 97.1525 102.835L98.7608 101.64C98.9279 101.515 99.1786 101.485 99.3248 101.573L100.891 102.475ZM97.1608 103.795C97.3071 103.879 97.3112 104.046 97.1441 104.171L95.5316 105.37C95.3645 105.496 95.1097 105.512 94.9635 105.429L93.4053 104.531C93.2549 104.443 93.2507 104.272 93.4178 104.151L95.0303 102.952C95.1974 102.826 95.4522 102.805 95.6026 102.893L97.1608 103.795ZM92.6909 104.677C92.8413 104.765 92.8246 104.928 92.6575 105.053L91.0491 106.248C90.8778 106.373 90.6397 106.402 90.4893 106.315L88.9186 105.408C88.7724 105.324 88.7682 105.157 88.9395 105.032L90.5478 103.833C90.7149 103.708 90.9739 103.687 91.1201 103.77L92.6909 104.677ZM108.106 103.465C108.261 103.553 108.248 103.716 108.081 103.841L106.894 104.719C106.74 104.836 106.485 104.873 106.335 104.786L104.768 103.883C104.618 103.795 104.643 103.624 104.793 103.507L105.98 102.63C106.147 102.505 106.389 102.475 106.544 102.563L108.106 103.465ZM103.306 103.871C103.444 103.95 103.44 104.121 103.273 104.247L101.668 105.441C101.497 105.567 101.226 105.596 101.088 105.517L99.5211 104.614C99.3707 104.527 99.3833 104.347 99.5546 104.222L101.159 103.027C101.326 102.901 101.589 102.876 101.739 102.964L103.306 103.871ZM99.5671 105.182C99.7217 105.27 99.7217 105.441 99.5546 105.563L97.942 106.762C97.7749 106.887 97.5243 106.904 97.3697 106.82L95.8031 105.913C95.6653 105.834 95.6653 105.663 95.8324 105.542L97.4407 104.343C97.6078 104.217 97.8627 104.201 98.0047 104.28L99.5671 105.182ZM110.512 104.857C110.658 104.94 110.658 105.107 110.491 105.233L109.305 106.114C109.155 106.227 108.887 106.26 108.737 106.172L107.166 105.266C107.028 105.187 107.041 105.007 107.191 104.894L108.377 104.013C108.545 103.887 108.804 103.866 108.941 103.946L110.512 104.857ZM105.704 105.253C105.854 105.341 105.838 105.504 105.67 105.629L104.066 106.824C103.895 106.95 103.64 106.991 103.486 106.904L101.919 105.997C101.769 105.913 101.794 105.738 101.965 105.613L103.573 104.418C103.74 104.293 103.987 104.263 104.137 104.351L105.704 105.253ZM91.2413 107.296C91.3791 107.376 91.3666 107.547 91.1953 107.676L89.587 108.871C89.4199 108.997 89.1651 109.022 89.0272 108.942L87.4565 108.036C87.3061 107.948 87.3102 107.777 87.4773 107.656L89.0857 106.461C89.2528 106.335 89.5202 106.302 89.6705 106.39L91.2413 107.296ZM101.982 106.578C102.132 106.661 102.128 106.828 101.965 106.954L100.352 108.153C100.185 108.278 99.9347 108.299 99.7801 108.211L98.2178 107.305C98.0715 107.221 98.0757 107.054 98.2428 106.933L99.8553 105.738C100.022 105.613 100.273 105.592 100.415 105.671L101.982 106.578ZM97.4867 107.447C97.6413 107.534 97.6245 107.697 97.4574 107.823L95.8491 109.017C95.682 109.143 95.4355 109.172 95.2851 109.084L93.7186 108.182C93.5682 108.094 93.564 107.923 93.7353 107.798L95.3436 106.603C95.5107 106.477 95.7697 106.457 95.9201 106.544L97.4867 107.447ZM112.918 106.244C113.069 106.331 113.056 106.494 112.893 106.619L111.703 107.497C111.552 107.614 111.298 107.651 111.143 107.564L109.576 106.657C109.426 106.574 109.451 106.402 109.606 106.285L110.792 105.408C110.959 105.283 111.201 105.253 111.352 105.341L112.918 106.244ZM108.106 106.64C108.252 106.724 108.252 106.899 108.085 107.025L106.477 108.219C106.31 108.345 106.038 108.374 105.892 108.29L104.321 107.384C104.183 107.3 104.196 107.125 104.363 106.995L105.971 105.801C106.138 105.675 106.397 105.654 106.535 105.734L108.106 106.64ZM93.6517 108.683C93.8021 108.771 93.7896 108.951 93.6183 109.076L92.01 110.271C91.8429 110.396 91.5839 110.421 91.4335 110.333L89.8669 109.427C89.7165 109.343 89.7332 109.176 89.8961 109.051L91.5045 107.856C91.6758 107.731 91.9306 107.693 92.0852 107.781L93.6517 108.683ZM104.392 107.969C104.543 108.052 104.543 108.219 104.375 108.345L102.763 109.544C102.596 109.669 102.345 109.69 102.195 109.602L100.624 108.696C100.486 108.616 100.486 108.449 100.653 108.328L102.266 107.129C102.433 107.004 102.684 106.983 102.821 107.062L104.392 107.969ZM99.8888 108.834C100.039 108.917 100.022 109.084 99.8553 109.21L98.247 110.404C98.0799 110.53 97.8334 110.559 97.683 110.471L96.1165 109.565C95.9661 109.481 95.9702 109.314 96.1373 109.189L97.7457 107.99C97.9128 107.864 98.1676 107.839 98.3222 107.927L99.8888 108.834ZM115.316 107.63C115.467 107.714 115.471 107.885 115.304 108.006L114.117 108.892C113.963 109.005 113.695 109.034 113.541 108.946L111.974 108.044C111.824 107.956 111.849 107.785 112.004 107.668L113.19 106.791C113.357 106.665 113.599 106.636 113.75 106.724L115.316 107.63ZM96.0747 110.087C96.2209 110.17 96.2 110.337 96.0246 110.467L94.4204 111.662C94.2533 111.787 94.0026 111.816 93.8606 111.733L92.2899 110.826C92.1395 110.743 92.1562 110.576 92.3233 110.45L93.9316 109.256C94.0987 109.13 94.3577 109.093 94.5039 109.176L96.0747 110.087ZM106.803 109.36C106.953 109.443 106.953 109.615 106.786 109.736L105.173 110.935C105.006 111.06 104.756 111.081 104.605 110.998L103.034 110.087C102.884 110.003 102.897 109.84 103.06 109.715L104.672 108.52C104.839 108.395 105.081 108.366 105.232 108.453L106.803 109.36ZM102.287 110.216C102.437 110.304 102.42 110.467 102.253 110.592L100.645 111.787C100.478 111.912 100.235 111.942 100.081 111.854L98.5144 110.952C98.364 110.864 98.3681 110.697 98.5394 110.571L100.144 109.377C100.311 109.251 100.566 109.226 100.72 109.314L102.287 110.216ZM117.727 109.022C117.881 109.109 117.869 109.272 117.702 109.398L116.515 110.275C116.361 110.392 116.106 110.429 115.956 110.342L114.389 109.435C114.239 109.352 114.247 109.172 114.401 109.059L115.588 108.174C115.755 108.048 116.01 108.031 116.16 108.119L117.727 109.022ZM112.91 109.418C113.065 109.502 113.06 109.677 112.893 109.799L111.285 110.993C111.118 111.119 110.846 111.152 110.696 111.064L109.129 110.162C108.979 110.074 109.004 109.903 109.171 109.774L110.78 108.579C110.947 108.453 111.197 108.424 111.344 108.512L112.91 109.418ZM98.4977 111.482C98.648 111.57 98.623 111.741 98.4517 111.866L96.8434 113.061C96.6763 113.187 96.4298 113.216 96.2794 113.128L94.7128 112.226C94.5624 112.142 94.5624 111.967 94.7295 111.841L96.3379 110.647C96.505 110.521 96.7765 110.492 96.9311 110.58L98.4977 111.482ZM109.213 110.751C109.363 110.835 109.363 111.006 109.2 111.131L107.588 112.33C107.421 112.455 107.166 112.472 107.011 112.384L105.445 111.482C105.294 111.394 105.307 111.231 105.474 111.106L107.087 109.911C107.254 109.786 107.496 109.761 107.646 109.849L109.213 110.751ZM104.689 111.603C104.835 111.687 104.818 111.854 104.651 111.979L103.047 113.174C102.876 113.299 102.629 113.329 102.487 113.241L100.912 112.334C100.762 112.251 100.766 112.084 100.937 111.958L102.541 110.759C102.709 110.634 102.968 110.609 103.118 110.697L104.689 111.603ZM115.325 110.81C115.475 110.893 115.458 111.06 115.291 111.186L113.687 112.38C113.516 112.506 113.257 112.547 113.106 112.455L111.54 111.553C111.389 111.465 111.402 111.286 111.573 111.16L113.177 109.966C113.345 109.84 113.608 109.819 113.758 109.903L115.325 110.81ZM100.908 112.877C101.058 112.961 101.042 113.136 100.87 113.266L99.2663 114.461C99.0992 114.586 98.8444 114.611 98.6898 114.523L97.1191 113.617C96.9812 113.533 96.9896 113.366 97.1567 113.241L98.765 112.046C98.9321 111.921 99.1995 111.887 99.3373 111.967L100.908 112.877ZM111.623 112.142C111.774 112.23 111.774 112.397 111.607 112.518L109.994 113.717C109.827 113.842 109.576 113.863 109.426 113.78L107.855 112.869C107.709 112.786 107.717 112.627 107.885 112.501L109.497 111.302C109.664 111.177 109.906 111.152 110.053 111.236L111.623 112.142ZM98.2804 114.828C98.4308 114.912 98.4141 115.092 98.247 115.217L96.6387 116.412C96.4716 116.537 96.2209 116.558 96.0663 116.474L84.9625 110.062C84.8079 109.974 84.8079 109.803 84.975 109.682L86.5875 108.483C86.7546 108.357 87.022 108.328 87.1724 108.416L98.2804 114.828ZM103.327 114.273C103.481 114.356 103.465 114.536 103.293 114.661L101.685 115.856C101.518 115.981 101.263 116.006 101.113 115.919L99.5462 115.016C99.3958 114.929 99.4083 114.766 99.5754 114.64L101.184 113.446C101.351 113.32 101.61 113.278 101.76 113.366L103.327 114.273ZM114.034 113.537C114.184 113.621 114.184 113.788 114.017 113.913L112.405 115.112C112.238 115.238 111.987 115.254 111.836 115.171L110.266 114.264C110.12 114.181 110.132 114.014 110.295 113.893L111.907 112.694C112.075 112.568 112.317 112.543 112.463 112.631L114.034 113.537ZM109.485 114.373C109.622 114.457 109.622 114.624 109.455 114.749L107.847 115.944C107.676 116.069 107.421 116.09 107.283 116.011L105.712 115.104C105.566 115.02 105.562 114.853 105.733 114.724L107.341 113.529C107.509 113.404 107.768 113.383 107.914 113.466L109.485 114.373ZM105.75 115.672C105.9 115.756 105.875 115.927 105.708 116.057L104.096 117.251C103.928 117.377 103.682 117.406 103.532 117.318L101.965 116.412C101.815 116.328 101.831 116.161 101.998 116.036L103.603 114.841C103.774 114.716 104.033 114.678 104.183 114.766L105.75 115.672ZM111.882 115.76C112.02 115.839 112.02 116.011 111.853 116.136L110.245 117.331C110.078 117.456 109.819 117.477 109.681 117.397L108.11 116.491C107.964 116.407 107.96 116.236 108.131 116.107L109.739 114.912C109.906 114.787 110.165 114.766 110.312 114.853L111.882 115.76ZM108.173 117.072C108.319 117.155 108.298 117.322 108.127 117.452L106.518 118.647C106.351 118.772 106.101 118.801 105.959 118.718L104.388 117.811C104.242 117.728 104.242 117.552 104.409 117.431L106.017 116.236C106.184 116.111 106.456 116.077 106.602 116.165L108.173 117.072ZM93.6851 95.1397C93.8272 95.2232 93.8314 95.3903 93.6643 95.5156L92.4778 96.3971C92.3233 96.5141 92.0559 96.5433 91.9097 96.4556L90.3389 95.549C90.1969 95.4697 90.2136 95.2942 90.3682 95.1814L91.5546 94.3C91.7217 94.1746 91.9724 94.1538 92.1102 94.2331L93.6851 95.1397ZM87.8951 101.907C88.0413 101.991 88.0246 102.158 87.8575 102.283L86.2533 103.478C86.0821 103.603 85.8356 103.633 85.6935 103.545L84.1228 102.638C83.9682 102.555 83.9808 102.388 84.152 102.262L85.7604 101.068C85.9275 100.942 86.174 100.913 86.3244 101.001L87.8951 101.907ZM85.468 100.512C85.6225 100.595 85.6142 100.763 85.4471 100.888L83.8387 102.083C83.6716 102.208 83.421 102.233 83.2664 102.145L79.8534 100.174C79.703 100.09 79.7113 99.9271 79.8826 99.7976L81.491 98.607C81.6581 98.4817 81.9087 98.4524 82.0549 98.536L85.468 100.512ZM86.2951 107.906C86.4413 107.994 86.4204 108.165 86.2533 108.29L84.6408 109.485C84.4737 109.611 84.2314 109.64 84.0852 109.552L82.5144 108.646C82.3641 108.562 82.3641 108.395 82.5312 108.27L84.1437 107.071C84.3108 106.945 84.574 106.916 84.7285 107.004L86.2951 107.906ZM83.8471 106.498C84.0016 106.582 83.9724 106.753 83.8053 106.878L82.197 108.077C82.0299 108.203 81.7876 108.228 81.6372 108.14L80.0706 107.238C79.9202 107.15 79.916 106.979 80.0831 106.858L81.6957 105.659C81.8628 105.533 82.1301 105.504 82.2805 105.592L83.8471 106.498ZM88.8183 105.897C88.9687 105.98 88.9437 106.152 88.7766 106.281L87.164 107.476C86.9969 107.601 86.7505 107.63 86.6001 107.543L85.0335 106.636C84.8831 106.553 84.8915 106.381 85.0586 106.26L86.6627 105.061C86.834 104.936 87.1014 104.903 87.2476 104.99L88.8183 105.897ZM86.3954 104.497C86.5499 104.581 86.5207 104.756 86.3536 104.882L84.7452 106.076C84.5781 106.202 84.3317 106.231 84.1813 106.143L82.6147 105.241C82.4643 105.153 82.4769 104.99 82.644 104.865L84.2523 103.67C84.4194 103.545 84.6784 103.503 84.8288 103.591L86.3954 104.497ZM79.1098 103.762C79.256 103.846 79.2351 104.013 79.068 104.138L77.4555 105.337C77.2884 105.462 77.0461 105.492 76.8999 105.404L74.6022 104.08C74.4518 103.992 74.4602 103.829 74.6273 103.704L76.2398 102.509C76.4069 102.383 76.6617 102.346 76.8121 102.434L79.1098 103.762ZM81.4032 105.086C81.5536 105.17 81.5285 105.341 81.3614 105.462L79.7489 106.665C79.5818 106.791 79.3395 106.816 79.1933 106.732L77.6226 105.822C77.4722 105.738 77.4764 105.571 77.6393 105.446L79.2518 104.247C79.4189 104.121 79.6821 104.092 79.8367 104.18L81.4032 105.086ZM84.0351 103.131C84.1813 103.215 84.1562 103.39 83.9849 103.516L82.3766 104.71C82.2095 104.836 81.963 104.865 81.8168 104.781L77.2215 102.129C77.0753 102.045 77.0878 101.878 77.2549 101.753L78.8633 100.558C79.0346 100.433 79.2894 100.391 79.4398 100.483L84.0351 103.131ZM103.298 100.692C103.448 100.775 103.452 100.946 103.285 101.068L102.099 101.953C101.944 102.066 101.677 102.095 101.522 102.007L99.9556 101.105C99.8052 101.017 99.8303 100.846 99.9848 100.729L101.171 99.8519C101.338 99.7266 101.581 99.6973 101.731 99.7851L103.298 100.692ZM100.9 99.3046C101.05 99.3924 101.038 99.5553 100.875 99.6806L99.6841 100.558C99.5337 100.675 99.2747 100.712 99.1243 100.625L97.5577 99.7182C97.4073 99.6347 97.424 99.455 97.5786 99.3422L98.765 98.4608C98.9321 98.3355 99.1828 98.3146 99.3332 98.4023L100.9 99.3046ZM95.0888 106.064C95.2392 106.147 95.2267 106.315 95.0595 106.44L93.4512 107.635C93.2841 107.76 93.0376 107.789 92.8872 107.701L91.3207 106.795C91.1703 106.711 91.1661 106.54 91.3374 106.415L92.9457 105.22C93.1128 105.095 93.3718 105.07 93.5222 105.157L95.0888 106.064ZM107.087 112.99C107.224 113.07 107.216 113.241 107.049 113.362L105.445 114.557C105.274 114.682 105.023 114.707 104.885 114.628L103.314 113.721C103.164 113.638 103.164 113.466 103.335 113.341L104.944 112.146C105.111 112.021 105.37 111.996 105.516 112.084L107.087 112.99ZM105.662 119.089C105.808 119.173 105.796 119.353 105.633 119.478L104.02 120.677C103.853 120.802 103.598 120.819 103.448 120.735L101.877 119.829C101.727 119.741 101.744 119.578 101.911 119.457L103.523 118.258C103.69 118.133 103.941 118.095 104.091 118.183L105.662 119.089ZM103.181 117.657C103.331 117.744 103.319 117.924 103.151 118.045L101.539 119.244C101.372 119.369 101.121 119.39 100.967 119.302L99.4 118.396C99.2496 118.312 99.2621 118.145 99.4251 118.024L101.038 116.825C101.205 116.7 101.46 116.666 101.614 116.754L103.181 117.657ZM111.473 124.061C111.628 124.144 111.611 124.307 111.444 124.428L111.118 124.671C110.951 124.796 110.7 124.838 110.55 124.746L108.979 123.839C108.833 123.756 108.845 123.576 109.012 123.455L109.334 123.213C109.501 123.087 109.756 123.071 109.902 123.154L111.473 124.061ZM120.609 117.331C120.76 117.414 120.747 117.581 120.58 117.707L118.968 118.901C118.8 119.027 118.562 119.052 118.408 118.964L114.995 116.996C114.844 116.909 114.857 116.746 115.024 116.62L116.632 115.426C116.799 115.3 117.042 115.271 117.196 115.359L120.609 117.331ZM125.643 113.588C125.789 113.675 125.781 113.838 125.614 113.964L124.428 114.841C124.273 114.958 124.018 114.995 123.868 114.908L121.595 113.6C121.445 113.512 121.47 113.341 121.624 113.224L122.811 112.347C122.978 112.222 123.22 112.192 123.371 112.28L125.643 113.588ZM122.539 111.8C122.677 111.879 122.677 112.05 122.51 112.171L121.324 113.053C121.173 113.166 120.906 113.199 120.764 113.12L119.193 112.209C119.047 112.125 119.059 111.946 119.21 111.833L120.4 110.952C120.568 110.826 120.818 110.805 120.969 110.893L122.539 111.8ZM116.444 114.924C116.595 115.012 116.595 115.183 116.428 115.305L114.819 116.504C114.652 116.629 114.397 116.646 114.243 116.562L112.676 115.655C112.526 115.572 112.538 115.405 112.705 115.284L114.318 114.085C114.485 113.959 114.723 113.934 114.878 114.022L116.444 114.924ZM123.237 115.376C123.387 115.463 123.371 115.626 123.204 115.752L121.599 116.946C121.428 117.072 121.169 117.113 121.019 117.026L116.557 114.448C116.407 114.36 116.432 114.193 116.603 114.064L118.211 112.869C118.378 112.744 118.621 112.714 118.771 112.802L123.237 115.376ZM117.986 119.282C118.136 119.365 118.119 119.532 117.952 119.658L116.344 120.852C116.177 120.978 115.93 121.007 115.78 120.919L110.5 117.87C110.362 117.786 110.358 117.619 110.529 117.494L112.137 116.299C112.304 116.173 112.563 116.153 112.701 116.232L117.986 119.282ZM110.395 121.734C110.546 121.826 110.55 121.993 110.383 122.118L110.048 122.369C109.881 122.494 109.618 122.515 109.464 122.427L107.901 121.521C107.751 121.437 107.763 121.27 107.93 121.145L108.265 120.894C108.432 120.769 108.678 120.744 108.829 120.831L110.395 121.734ZM109.109 122.695C109.259 122.778 109.259 122.949 109.096 123.071L108.77 123.313C108.603 123.438 108.336 123.467 108.185 123.38L106.619 122.477C106.464 122.39 106.493 122.218 106.661 122.093L106.982 121.855C107.149 121.73 107.392 121.7 107.542 121.788L109.109 122.695ZM115.366 121.224C115.521 121.312 115.496 121.483 115.325 121.608L113.716 122.803C113.549 122.929 113.303 122.958 113.152 122.87L106.857 119.236C106.706 119.152 106.711 118.981 106.878 118.86L108.486 117.661C108.653 117.535 108.921 117.502 109.071 117.59L115.366 121.224ZM106.761 121.337C106.903 121.42 106.894 121.583 106.727 121.709L106.402 121.947C106.234 122.072 105.984 122.11 105.833 122.026L104.263 121.115C104.116 121.032 104.137 120.865 104.304 120.74L104.63 120.497C104.797 120.372 105.04 120.347 105.186 120.43L106.761 121.337Z" fill="#B2BABE"/>
<path d="M67.4712 21.9912L67.5589 53.1681L75.0116 57.496L74.9239 26.3233L67.4712 21.9912Z" fill="#485F69"/>
<path d="M45.9987 51.3843L46.0823 65.5628L67.5589 53.1681L67.4712 21.9912L45.9987 51.3843Z" fill="#40545D"/>
<path d="M46.7632 27.5348L46.3705 27.305L46.4666 62.1456L46.8634 62.3753L46.7632 27.5348Z" fill="#DDE4E7"/>
<path d="M67.4837 15.5746L67.0868 15.3448L46.3663 27.305L46.7632 27.5348L67.4837 15.5746Z" fill="#DDE4E7"/>
<path d="M46.7632 27.5348L46.8634 62.3754L67.584 50.4109L67.4837 15.5704L46.7632 27.5348Z" fill="#CFD8DD"/>
<path d="M47.7992 28.4246L47.4023 28.1907L47.4984 63.0312L47.8953 63.261L47.7992 28.4246Z" fill="#DDE4E7"/>
<path d="M68.5155 16.4602L68.1229 16.2304L47.4023 28.1907L47.7992 28.4246L68.5155 16.4602Z" fill="#DDE4E7"/>
<path d="M47.7992 28.4246L47.8953 63.261L68.6158 51.2966L68.5155 16.4602L47.7992 28.4246Z" fill="#CFD8DD"/>
<path d="M48.8311 29.3103L48.4342 29.0805L48.5345 63.9169L48.9313 64.1466L48.8311 29.3103ZM69.5516 17.3458L69.1547 17.1161L48.4342 29.0805L48.8311 29.3103L69.5516 17.3458Z" fill="#DDE4E7"/>
<path d="M48.8311 29.3103L48.9313 64.1466L69.6518 52.1822L69.5516 17.3458L48.8311 29.3103Z" fill="#CFD8DD"/>
<path d="M49.8629 30.1959L49.4661 29.9661L49.5663 64.8025L49.9632 65.0322L49.8629 30.1959ZM70.5834 18.2315L70.1866 18.0017L49.4661 29.9661L49.8629 30.1959L70.5834 18.2315Z" fill="#DDE4E7"/>
<path d="M49.8629 30.1959L49.9632 65.0322L70.6837 53.0678L70.5834 18.2315L49.8629 30.1959Z" fill="#CFD8DD"/>
<path d="M50.8948 31.0815L50.4979 30.8518L50.5982 65.6881L50.9951 65.9179L50.8948 31.0815ZM71.6153 19.1171L71.2184 18.8873L50.4979 30.8518L50.8948 31.0815L71.6153 19.1171Z" fill="#DDE4E7"/>
<path d="M50.8948 31.0815L50.995 65.9221L71.7155 53.9577L71.6153 19.1171L50.8948 31.0815Z" fill="#CFD8DD"/>
<path d="M51.9266 31.9672L51.5339 31.7374L51.63 66.5779L52.0269 66.8035L51.9266 31.9672Z" fill="#DDE4E7"/>
<path d="M72.6472 20.0027L72.2503 19.773L51.5298 31.7374L51.9266 31.9672L72.6472 20.0027Z" fill="#DDE4E7"/>
<path d="M51.9266 31.9672L52.0269 66.8077L72.7474 54.8433L72.6472 20.0027L51.9266 31.9672Z" fill="#CFD8DD"/>
<path d="M53.4472 56.155L53.5349 70.3335L75.7677 57.496L75.6842 26.3233L53.4472 56.155Z" fill="#40545D"/>
<path d="M45.2551 51.3926L45.3387 65.5711L53.535 70.3335L53.4514 56.155L45.2551 51.3926Z" fill="#485F69"/>
<path d="M53.4514 55.7164L46.4373 51.6433V52.0819L53.4472 56.155L72.6763 30.3505V29.4022L53.4514 55.7164Z" fill="#56707B"/>
<path d="M72.6596 24.5646V25.0074L74.9238 26.3233L72.6763 29.4022V30.3505L75.68 26.3233L72.6596 24.5646Z" fill="#56707B"/>
<path d="M45.9987 51.3843L46.4374 50.7869L46.4332 49.8135L45.2551 51.3926L46.4374 52.0819V51.6433L45.9987 51.3843Z" fill="#56707B"/>
<path d="M129.904 83.0165V83.1C129.853 83.6537 129.677 84.1885 129.39 84.6646C129.103 85.1406 128.712 85.5455 128.246 85.8489L117.915 91.8227L102.307 82.7575L112.639 76.7836C113.512 76.2573 114.251 75.0834 114.251 74.0808C114.293 74.0348 114.293 73.993 114.293 73.9471L114.251 65.2286L129.862 74.2103L129.904 83.0165Z" fill="#485F69"/>
<path d="M129.904 83.0165V83.1L114.251 74.0766C114.293 74.0348 114.293 73.993 114.293 73.9513L114.251 65.2286L129.863 74.2103L129.904 83.0165Z" fill="#40545D"/>
<path d="M129.875 73.1492L114.264 64.0756L115.087 63.5994L130.702 72.6688L129.875 73.1492Z" fill="#686969"/>
<path d="M117.927 92.7668L102.312 83.6974V82.7449L117.923 91.8185L117.927 92.7668Z" fill="#56707B"/>
<path d="M130.698 72.6688L130.727 82.5277C130.731 84.0985 129.629 86.0118 128.258 86.8055L117.927 92.7668L117.923 91.8185L128.254 85.853C128.734 85.5406 129.133 85.1194 129.419 84.6236C129.705 84.1278 129.87 83.5714 129.9 82.9998L129.875 73.1492L130.698 72.6688Z" fill="#40545D"/>
<path d="M90.4684 47.3488L96.342 43.9358L158.182 82.5402L154.965 84.5872L90.4684 47.3488Z" fill="#E8E8E8"/>
<path d="M93.5598 6.18767L99.4292 2.77881L99.3164 42.2564L93.447 45.6653L93.5598 6.18767Z" fill="#3E3E3E"/>
<path d="M154.969 84.5831L154.953 90.9705C154.948 92.3491 153.975 92.9005 152.78 92.2112L92.624 57.4835C91.4126 56.7817 90.4517 55.1065 90.4517 53.7321L90.4726 47.3488L154.969 84.5831Z" fill="#DDE4E7"/>
<path d="M158.178 82.5486L158.157 88.9193C158.157 89.6044 157.927 90.0848 157.53 90.3146L154.314 92.3616C154.71 92.1318 154.94 91.6514 154.94 90.9663L154.961 84.5914L158.178 82.5486Z" fill="#B0B8BC"/>
<path d="M152.137 40.0089L155.354 37.9661L155.241 77.4437L152.024 79.4907L152.137 40.0089Z" fill="#6AC4EF"/>
<path d="M93.447 45.6653L99.3164 42.2564L155.241 77.4437L152.024 79.4907L93.447 45.6653Z" fill="#3E3E3E"/>
<path d="M152.158 40.0047L152.028 79.5032L104.593 52.1237L95.0887 46.6303L93.4344 45.6694V39.2611L93.5598 6.17096L115.408 18.7704L119.285 21.0388L121.332 22.2126L130.794 27.6643L152.158 40.0047Z" fill="#4BB5E7"/>
<path d="M93.5598 6.18767L99.4292 2.77881L155.35 37.9661L152.137 40.0131L93.5598 6.18767Z" fill="#6AC4EF"/>
<path d="M156.139 35.0251L95.9953 0.309894C95.3895 -0.0451955 94.8256 -0.0869706 94.4329 0.142793L91.2162 2.18978C91.6131 1.96002 92.177 1.9809 92.7786 2.33599L152.943 37.0721C153.532 37.4146 154.067 38.0037 154.451 38.6804L157.668 36.6335C157.304 35.974 156.78 35.4199 156.139 35.0251Z" fill="#56707B"/>
<path d="M154.451 38.6804C154.844 39.3614 155.086 40.13 155.086 40.8193L154.961 84.5914L158.178 82.5444L158.303 38.7723C158.303 38.0831 158.061 37.3144 157.664 36.6335L154.451 38.6804Z" fill="#40545D"/>
<path d="M152.935 37.0721C154.13 37.7614 155.099 39.4366 155.095 40.8151L154.969 84.5831L90.4684 47.3446L90.5938 3.57671C90.598 2.19813 91.5713 1.64669 92.7828 2.34434L152.935 37.0721ZM152.028 79.4907L152.137 40.0131L93.5598 6.18348L93.4512 45.6611L152.028 79.4907Z" fill="#485F69"/>
<path d="M123.65 70.9393C123.634 72.0505 122.857 72.5184 121.883 71.9544C121.358 71.6236 120.92 71.1719 120.605 70.6369C120.29 70.102 120.109 69.4995 120.075 68.8797C120.075 67.7685 120.868 67.3341 121.883 67.9273C122.396 68.2531 122.823 68.6962 123.131 69.2199C123.438 69.7437 123.616 70.333 123.65 70.9393Z" fill="#CFD8DD"/>
<path d="M119.285 21.0388L93.4344 45.1431V39.2611L115.408 18.7704L119.285 21.0388ZM130.794 27.6643L104.593 52.1237L95.0887 46.6303L121.336 22.2126L130.794 27.6643Z" fill="#61C4F0"/>
</svg>
